<?xml version="1.0" standalone="no"?>
<!DOCTYPE svg PUBLIC "-//W3C//DTD SVG 20010904//EN"
 "http://www.w3.org/TR/2001/REC-SVG-20010904/DTD/svg10.dtd">
<svg version="1.0" xmlns="http://www.w3.org/2000/svg"
 width="512.000000pt" height="512.000000pt" viewBox="0 0 512.000000 512.000000"
 preserveAspectRatio="xMidYMid meet">
<metadata>
Created by potrace 1.15, written by Peter Selinger 2001-2017
</metadata>
<g transform="translate(0.000000,512.000000) scale(0.100000,-0.100000)"
fill="#000000" stroke="none">
<path d="M2860 4393 c0 -6 -11 -8 -25 -6 -30 6 -159 -52 -150 -67 4 -6 1 -9
-7 -8 -7 2 -12 -3 -10 -10 1 -8 -2 -11 -7 -8 -5 3 -14 -1 -20 -8 -9 -11 -9
-16 0 -22 8 -4 9 -3 5 4 -5 8 -1 10 9 5 13 -4 14 -8 4 -13 -7 -5 -18 -6 -24
-3 -13 4 -41 -31 -65 -82 -10 -21 -15 -87 -18 -221 l-4 -191 103 -6 c113 -6
274 -43 364 -83 30 -13 55 -20 55 -16 0 4 4 2 8 -4 13 -19 143 -84 154 -78 7
4 8 2 4 -4 -9 -15 6 -16 21 -1 8 8 13 8 18 0 3 -6 1 -10 -6 -9 -6 2 -14 -3
-17 -11 -2 -8 0 -11 6 -7 6 3 12 2 14 -2 5 -14 90 -72 98 -67 4 2 16 -5 26
-18 l19 -22 -22 19 c-33 27 -28 10 5 -19 19 -17 35 -23 52 -20 21 5 22 4 7 -5
-9 -6 -15 -16 -12 -21 4 -5 11 -7 16 -3 5 3 8 0 7 -8 -2 -7 3 -12 10 -10 8 1
11 -2 8 -7 -4 -5 2 -14 11 -20 10 -6 14 -11 9 -11 -6 0 2 -12 16 -27 35 -37
168 -241 167 -256 0 -1 13 -34 29 -73 17 -40 33 -86 37 -103 4 -18 11 -28 17
-25 6 4 8 -1 4 -13 -4 -11 -1 -33 5 -49 17 -46 24 -127 24 -299 0 -168 -6
-249 -18 -261 -4 -4 -7 -14 -7 -23 0 -9 -14 -57 -31 -106 -17 -50 -30 -98 -30
-107 0 -10 -4 -18 -8 -18 -4 0 -15 -17 -25 -37 -10 -21 -39 -73 -64 -116 -26
-42 -53 -87 -59 -100 -7 -12 -13 -18 -13 -14 0 10 -50 -48 -50 -57 0 -9 -101
-106 -109 -106 -4 0 -28 -21 -54 -47 -26 -25 -47 -43 -47 -38 0 4 -6 2 -14 -5
-8 -6 -12 -19 -9 -28 4 -14 3 -15 -6 -2 -8 12 -13 12 -23 2 -9 -9 -9 -12 2
-12 12 0 12 -2 2 -8 -29 -19 51 -161 117 -206 127 -88 281 -87 404 2 34 24 46
39 42 50 -3 9 -3 13 1 9 11 -10 52 43 71 93 16 42 18 125 21 1135 3 1081 1
1241 -20 1229 -6 -4 -8 -3 -5 3 8 13 -11 80 -25 89 -7 5 -8 3 -3 -6 5 -8 4
-11 -3 -6 -6 4 -9 12 -6 19 5 13 -61 81 -111 113 -22 14 -27 15 -21 4 4 -8 1
-7 -8 4 -9 11 -29 19 -50 20 -19 0 -32 4 -29 9 2 4 -23 7 -57 7 -34 0 -59 -3
-57 -7 3 -5 -10 -8 -29 -9 -21 0 -40 -8 -50 -20 -8 -10 -12 -12 -8 -4 6 12 2
11 -20 -3 -46 -31 -65 -50 -59 -60 3 -6 1 -7 -5 -3 -14 8 -66 -62 -82 -109 -8
-25 -8 -40 0 -57 11 -22 10 -22 -4 -4 -9 11 -16 14 -16 7 0 -7 -4 -10 -8 -7
-5 3 -7 28 -5 56 3 33 -1 58 -9 68 -11 13 -11 14 1 8 22 -14 10 306 -13 359
-26 57 -56 96 -68 89 -6 -4 -8 -3 -5 3 14 22 -94 95 -159 108 -82 15 -104 17
-104 8z"/>
<path d="M1406 3726 c-73 -31 -138 -93 -174 -166 l-27 -55 0 -1000 0 -1000 23
-46 c37 -75 87 -125 160 -161 59 -29 76 -33 147 -33 64 1 91 6 135 26 64 30
117 73 142 117 l18 30 -41 27 c-64 42 -204 181 -266 263 -105 139 -192 330
-229 502 -26 119 -26 400 -1 518 36 162 97 308 187 445 58 90 198 239 285 305
33 25 64 48 68 52 24 21 -75 131 -153 171 -34 17 -66 23 -130 26 -73 3 -93 0
-144 -21z"/>
<path d="M2370 3684 c-159 -29 -253 -60 -380 -125 -334 -171 -571 -491 -635
-859 -20 -116 -20 -312 0 -420 72 -389 321 -713 676 -879 317 -149 701 -149
1018 0 354 166 603 491 677 884 24 131 15 365 -19 496 -115 439 -435 760 -874
876 -84 22 -123 26 -268 29 -93 1 -181 0 -195 -2z m453 -48 c524 -136 897
-609 897 -1137 0 -328 -116 -606 -349 -840 -162 -160 -332 -257 -557 -315 -98
-26 -125 -29 -279 -29 -108 0 -190 5 -225 13 -237 58 -417 152 -573 301 -43
41 -83 84 -89 96 -6 11 32 -20 84 -70 230 -216 505 -325 819 -325 457 0 872
275 1055 699 84 193 115 449 80 651 -53 301 -211 563 -452 746 -88 67 -282
160 -399 190 -190 49 -428 44 -624 -12 -190 -55 -341 -146 -501 -299 -71 -68
-91 -84 -62 -49 165 202 415 349 679 399 123 23 370 14 496 -19z m-56 -20
c232 -50 426 -157 592 -326 172 -175 274 -376 315 -619 50 -297 -29 -622 -209
-859 -28 -37 -57 -66 -64 -64 -7 1 -10 -2 -6 -7 8 -14 -104 -123 -188 -182
-466 -329 -1077 -280 -1475 119 -54 54 -82 89 -78 98 3 9 1 12 -4 9 -6 -3 -10
1 -10 9 0 9 5 16 12 16 6 0 8 3 5 6 -4 4 -13 2 -20 -4 -10 -9 -14 -8 -14 3 0
8 4 12 8 10 12 -8 18 22 6 34 -8 8 -8 11 0 11 6 0 34 -28 61 -63 95 -119 267
-248 410 -308 152 -63 250 -82 427 -83 171 -1 222 7 363 54 612 208 898 917
607 1507 -106 216 -273 380 -492 485 -149 71 -266 99 -438 103 l-140 4 125 -9
c317 -21 552 -127 756 -342 112 -118 185 -236 233 -377 130 -379 44 -782 -230
-1075 -420 -450 -1131 -458 -1538 -19 -44 47 -78 90 -75 95 3 4 1 8 -4 8 -5 0
-12 10 -16 22 -3 15 8 6 36 -27 185 -222 420 -347 719 -385 168 -21 372 13
536 90 334 156 547 454 592 830 41 331 -107 701 -362 907 -198 160 -406 236
-647 237 -320 1 -568 -105 -797 -341 -28 -29 -54 -49 -58 -43 -9 15 169 189
244 240 88 59 212 115 317 144 49 14 80 25 69 25 -69 3 -276 -82 -398 -161
-81 -54 -278 -236 -276 -255 0 -4 -5 -9 -11 -11 -9 -3 -9 1 -1 17 7 11 9 22 6
22 -3 1 -9 2 -14 3 -5 0 -13 5 -18 10 -5 6 -2 6 6 1 11 -6 13 -4 7 11 -6 15
-2 14 21 -6 19 -17 22 -19 10 -4 -9 11 -17 26 -17 33 0 21 172 184 245 232
155 103 328 168 510 193 62 9 293 -3 362 -18z m-72 -254 c18 -6 30 -15 29 -25
-1 -10 21 -24 72 -42 133 -48 266 -143 242 -172 -6 -8 -19 -11 -31 -7 -18 6
-17 3 5 -18 60 -55 142 -169 93 -128 -9 7 -18 10 -22 6 -3 -3 -1 -6 6 -6 7 0
9 -5 6 -10 -5 -8 -11 -7 -21 1 -21 17 -17 3 13 -44 33 -52 78 -152 87 -192 l7
-30 -23 34 c-22 34 -22 34 -28 11 -3 -13 0 -51 7 -85 17 -83 16 -109 -6 -129
-11 -10 -17 -24 -14 -32 3 -8 0 -20 -6 -28 -13 -15 -4 -73 12 -83 6 -4 8 0 5
8 -16 42 -20 63 -10 54 19 -18 20 -115 1 -115 -6 0 -9 7 -5 15 6 18 -2 45 -15
45 -5 0 -7 -11 -3 -24 3 -13 1 -27 -6 -31 -16 -10 -26 3 -13 16 8 8 8 20 2 36
-8 21 -7 24 6 19 12 -4 14 0 9 22 -4 15 -11 31 -15 37 -5 5 -9 34 -9 65 0 209
-169 419 -390 484 -70 21 -207 21 -283 1 -215 -56 -369 -231 -399 -452 -10
-73 -15 -90 -27 -85 -10 4 -13 1 -8 -11 3 -9 2 -17 -4 -17 -6 0 -8 11 -4 28 4
20 1 33 -10 42 -9 7 -15 8 -15 2 0 -6 6 -13 13 -16 9 -5 9 -7 0 -12 -7 -3 -9
-13 -6 -22 3 -9 3 -14 -2 -10 -13 12 -17 153 -6 194 8 29 7 42 -3 53 -7 9 -11
23 -9 31 2 8 -3 4 -12 -10 l-16 -25 6 30 c7 35 64 155 95 203 12 17 17 32 11
32 -6 0 -11 -4 -11 -10 0 -5 -5 -10 -11 -10 -5 0 -7 5 -3 11 4 8 -1 9 -16 4
l-23 -7 23 33 c13 19 42 54 64 78 34 37 37 43 18 38 -12 -3 -20 -1 -16 4 3 5
0 9 -6 9 -6 0 -8 5 -5 10 4 6 11 7 17 4 6 -4 8 -3 5 2 -14 23 65 82 195 145
57 27 92 46 79 43 -21 -6 -22 -4 -10 9 8 8 16 15 19 14 3 0 12 3 20 6 57 25
279 30 355 9z m-92 -651 c33 -20 87 -98 87 -125 0 -6 11 -33 25 -61 24 -46 24
-50 8 -57 -17 -6 -17 -7 0 -7 11 -1 17 -9 17 -26 0 -20 10 -30 49 -50 62 -31
68 -41 43 -68 -11 -12 -31 -53 -43 -90 -25 -76 -78 -145 -133 -171 -19 -9 -60
-21 -91 -28 -117 -23 -249 54 -290 169 -9 26 -20 55 -23 63 -3 8 -4 20 -3 27
1 7 -10 20 -24 29 -30 20 -22 35 35 64 31 16 39 27 50 67 6 26 18 65 26 86 8
20 14 44 14 52 0 23 60 115 75 115 7 0 18 6 25 14 24 29 104 28 153 -3z m-599
-355 c-3 -8 -1 -17 5 -21 18 -10 12 -25 -6 -18 -15 6 -16 5 -3 -9 8 -9 18 -14
22 -11 4 2 5 -4 1 -13 -4 -12 -3 -15 5 -10 11 6 17 -5 13 -26 0 -5 3 -8 7 -8
5 0 26 -25 47 -55 100 -146 303 -238 485 -221 122 11 234 61 324 145 48 45
126 150 126 170 0 19 22 23 34 5 9 -12 15 -14 20 -5 4 6 2 18 -4 26 -10 13 -8
15 14 15 16 0 26 -5 26 -15 0 -8 -3 -15 -8 -15 -4 0 -17 -29 -30 -63 -18 -51
-21 -69 -12 -91 15 -42 12 -153 -6 -194 -37 -85 -52 -107 -102 -153 -64 -59
-172 -113 -270 -135 -40 -9 -72 -19 -72 -23 0 -11 -72 -11 -130 1 -238 46
-350 100 -435 212 -16 20 -29 45 -30 54 0 9 -10 30 -20 46 -23 34 -27 122 -9
184 10 36 10 49 -1 76 -12 29 -12 36 0 52 19 25 19 34 -1 34 -12 0 -15 6 -10
23 3 12 6 30 6 40 0 9 4 17 10 17 5 0 7 -6 4 -14z"/>
<path d="M3170 1382 c-25 -14 -47 -30 -48 -34 -2 -5 -8 -6 -13 -2 -5 3 -9 0
-9 -6 0 -6 -4 -8 -10 -5 -5 3 -10 1 -10 -4 0 -6 -3 -10 -7 -10 -5 1 -11 0 -15
-1 -5 -1 -11 -3 -15 -4 -26 -6 -149 -50 -153 -55 -3 -3 -14 -7 -25 -8 -11 -2
-60 -9 -110 -18 -49 -8 -114 -15 -142 -15 -62 0 -63 -4 -29 -77 38 -80 146
-176 178 -157 7 4 8 3 4 -4 -22 -36 202 -41 231 -5 8 10 12 12 8 6 -10 -20 7
-15 50 14 58 39 106 85 80 78 -13 -4 -12 -1 6 9 28 16 53 62 43 78 -4 7 -2 8
4 4 7 -4 13 0 14 11 2 33 3 38 11 50 6 9 8 187 3 183 -1 -1 -21 -13 -46 -28z"/>
</g>
</svg>
